Coordinates
version=1
nRows=13
nColumns=40
inDegrees=yes

Units are S.I. units (second, meters, Newtons, ...)
Angles are in degrees.

endheader
time	pelvis_tilt	pelvis_list	pelvis_rotation	pelvis_tx	pelvis_ty	pelvis_tz	hip_flexion_r	hip_adduction_r	hip_rotation_r	knee_angle_r	knee_angle_r_beta	ankle_angle_r	subtalar_angle_r	mtp_angle_r	hip_flexion_l	hip_adduction_l	hip_rotation_l	knee_angle_l	knee_angle_l_beta	ankle_angle_l	subtalar_angle_l	mtp_angle_l	lumbar_extension	lumbar_bending	lumbar_rotation	arm_flex_r	arm_add_r	arm_rot_r	elbow_flex_r	pro_sup_r	wrist_flex_r	wrist_dev_r	arm_flex_l	arm_add_l	arm_rot_l	elbow_flex_l	pro_sup_l	wrist_flex_l	wrist_dev_l
      3.42500000	     -4.69280995	     -3.55212839	     16.35467557	      0.92668530	      0.91890849	      0.51834154	      6.42983590	      1.69328534	    -16.94881626	     19.38609674	     19.38609674	     18.94717391	     -7.28323030	     -2.62126599	     29.43472407	     -5.73380082	      3.37627496	     17.57140050	     17.57140050	     -0.65096943	      0.02045137	      1.38992286	     -9.50849904	      3.90338834	      3.21784552	     71.23503453	    -19.91478208	     -2.73131484	     79.71210561	     44.72291416	      0.00000000	      0.00000000	    -25.92350651	     -8.15668798	     27.76223598	     36.61516183	     42.55318615	      0.00000000	      0.00000000
      3.44750000	     -4.80254191	     -3.68747854	     16.37362394	      0.92855203	      0.91782400	      0.51443426	      6.19530279	      1.62020355	    -16.92053578	     19.63545939	     19.63545939	     19.29718998	     -7.24770987	     -2.44812552	     29.11135087	     -5.55452428	      4.02572918	     17.95955022	     17.95955022	     -0.55257171	     -0.77322115	     -0.15251461	     -9.33361071	      3.91590046	      3.24257887	     70.26218083	    -19.60565870	     -3.16015284	     83.12538701	     44.63937006	      0.00000000	      0.00000000	    -25.31974688	     -8.19849037	     28.02274577	     36.16355070	     42.59476603	      0.00000000	      0.00000000
      3.47000000	     -4.75433480	     -3.64683741	     16.26603319	      0.93067873	      0.91739415	      0.51035282	      5.68220887	      1.41906830	    -16.75914460	     19.77896485	     19.77896485	     19.49259845	     -7.25212538	     -2.44811469	     28.56062192	     -5.34969582	      4.30518699	     18.38775910	     18.38775910	      0.06384120	     -1.13746799	     -0.62155051	     -9.27101163	      3.71179387	      3.35444688	     69.56244947	    -19.37899582	     -3.10412061	     83.44563282	     44.62810130	      0.00000000	      0.00000000	    -24.64827866	     -8.53222753	     27.95691741	     36.14749465	     42.62286003	      0.00000000	      0.00000000
      3.49250000	     -4.83050967	     -3.64992929	     16.14807810	      0.93274427	      0.91710783	      0.50588899	      5.28840983	      1.17124131	    -16.72391902	     19.89832141	     19.89832141	     19.72472851	     -6.96418495	     -2.12364148	     28.15740706	     -5.02241477	      5.04619792	     18.73998022	     18.73998022	      0.30599542	     -2.49492927	     -1.37629960	     -9.20021234	      3.57754200	      3.85923375	     68.04638901	    -19.68665765	     -3.78277668	     86.15993195	     44.58440815	      0.00000000	      0.00000000	    -23.56340808	     -8.86801421	     28.07435314	     35.57663004	     42.71490649	      0.00000000	      0.00000000
      3.51500000	     -4.86513271	     -3.65090594	     15.94775155	      0.93476289	      0.91719369	      0.50123882	      4.78753934	      0.92927535	    -16.63221842	     19.86128228	     19.86128228	     19.73680858	     -6.66242609	     -1.97592649	     27.86764383	     -4.79373837	      5.36672087	     19.33623240	     19.33623240	      0.92133947	     -3.22137648	     -1.63504939	     -9.10956108	      3.47501020	      4.02419997	     67.03212835	    -19.61398931	     -3.84891024	     86.43820195	     44.59089333	      0.00000000	      0.00000000	    -22.64433827	     -9.28021532	     28.08134533	     35.44356405	     42.78014579	      0.00000000	      0.00000000
      3.53750000	     -4.94023528	     -3.64606212	     15.66527235	      0.93677281	      0.91755373	      0.49641198	      4.29019383	      0.65435278	    -16.55906854	     19.73597550	     19.73597550	     19.61241603	     -6.26807264	     -1.89158272	     27.62697379	     -4.55681247	      5.58882720	     19.91302435	     19.91302435	      1.54980990	     -4.03988450	     -1.64771889	     -9.03402208	      3.37409965	      4.10239464	     65.95966382	    -19.45833040	     -3.90519634	     86.31814970	     44.60359472	      0.00000000	      0.00000000	    -21.76945565	     -9.69949340	     27.97504005	     35.42799023	     42.83972451	      0.00000000	      0.00000000
      3.56000000	     -5.03532096	     -3.61424702	     15.25585430	      0.93867663	      0.91811329	      0.49155660	      3.86280496	      0.33262773	    -16.29298679	     19.67092993	     19.67092993	     19.42845222	     -5.98239415	     -1.83539545	     27.37166247	     -4.36972367	      5.51399619	     20.39354261	     20.39354261	      2.10417126	     -4.57312426	     -1.81032899	     -9.00722917	      3.28792269	      4.14995974	     64.96517284	    -19.08444517	     -3.73404383	     85.99962031	     44.60623871	      0.00000000	      0.00000000	    -20.85203326	    -10.16510910	     27.80866481	     35.54531475	     42.87658620	      0.00000000	      0.00000000
      3.58250000	     -5.10458877	     -3.63698259	     14.79853821	      0.94056911	      0.91886514	      0.48642379	      3.26466295	     -0.00791616	    -16.49785070	     19.32313733	     19.32313733	     19.15617136	     -4.82546919	     -1.95661726	     27.20843646	     -4.10536005	      5.90429627	     21.09311473	     21.09311473	      2.85740026	     -6.00775768	     -0.93803811	     -8.92526371	      3.22005151	      4.54145634	     63.75291424	    -19.20077954	     -4.30108960	     84.57267512	     44.68390892	      0.00000000	      0.00000000	    -19.90637415	    -10.63247731	     27.52653977	     35.53357842	     42.98366683	      0.00000000	      0.00000000
      3.60500000	     -5.20287127	     -3.71977106	     14.23527627	      0.94238873	      0.91951926	      0.48146146	      2.79128372	     -0.24586644	    -16.31986982	     19.05127870	     19.05127870	     18.85339639	     -4.17510298	     -1.94020252	     27.12712792	     -4.02814926	      5.82296211	     21.81187013	     21.81187013	      3.46340475	     -6.81934696	     -0.82688582	     -8.84737170	      3.23514363	      4.68497538	     62.44077894	    -19.06045686	     -4.35327649	     83.44445439	     44.72248603	      0.00000000	      0.00000000	    -19.06488066	    -11.10522569	     27.29274024	     35.66816378	     43.04142705	      0.00000000	      0.00000000
      3.62750000	     -5.27468494	     -3.78914086	     13.55723937	      0.94415914	      0.92020779	      0.47658160	      2.36475346	     -0.51207227	    -16.02305734	     18.88927806	     18.88927806	     18.54799976	     -3.56132204	     -1.92280803	     26.95416440	     -3.99672486	      5.58910172	     22.42932750	     22.42932750	      3.99750283	     -7.57606927	     -0.80744921	     -8.86468885	      3.25308551	      4.90459831	     61.10292888	    -18.74386060	     -4.28363664	     82.37400673	     44.75193656	      0.00000000	      0.00000000	    -18.08703859	    -11.60405480	     27.05852216	     35.86337613	     43.08986254	      0.00000000	      0.00000000
      3.65000000	     -5.38965323	     -3.90397265	     12.89701313	      0.94574818	      0.92079869	      0.47145872	      1.87764227	     -0.87410104	    -16.45230986	     18.51636148	     18.51636148	     18.11899576	     -1.76637083	     -2.66329322	     26.96450592	     -3.86318796	      5.75404311	     23.34896869	     23.34896869	      5.39922392	     -8.60344518	      1.65066006	     -8.68641716	      3.25750562	      4.62957402	     60.72992830	    -17.64159445	     -5.28756109	     76.95871421	     44.98989146	      0.00000000	      0.00000000	    -17.52412476	    -11.97460176	     26.33432749	     36.19440760	     43.32466894	      0.00000000	      0.00000000
      3.67250000	     -5.43033624	     -4.02450379	     12.07871310	      0.94734369	      0.92132454	      0.46674109	      1.52967042	     -1.09791565	    -15.95416090	     18.45100006	     18.45100006	     17.84250726	     -1.25483776	     -2.62769403	     26.74416039	     -3.94901790	      5.35346750	     23.92831979	     23.92831979	      5.89256187	     -9.27214188	      1.52703020	     -8.83207334	      3.30941840	      4.71900285	     59.00016978	    -17.28507888	     -5.11113259	     76.02311703	     45.00837828	      0.00000000	      0.00000000	    -16.56100344	    -12.46229968	     26.08951902	     36.41551272	     43.37039666	      0.00000000	      0.00000000
      3.69500000	     -5.51814239	     -4.17610524	     11.30200856	      0.94899410	      0.92170433	      0.46169437	      1.06824321	     -1.41632763	    -16.18090631	     18.11330061	     18.11330061	     17.49601822	      0.40726394	     -3.07865002	     26.66330657	     -3.94215787	      5.23566534	     24.74106141	     24.74106141	      6.99477496	    -10.04784925	      2.89579677	     -8.58557322	      3.32061106	      4.86323761	     58.02633679	    -16.85602955	     -6.11262020	     70.38783196	     45.24030770	      0.00000000	      0.00000000	    -15.81331305	    -12.91565927	     25.18313586	     36.87954226	     43.59412051	      0.00000000	      0.00000000
